<svg width="112" height="121" viewBox="0 0 112 121" fill="none" xmlns="http://www.w3.org/2000/svg">
<path d="M27.473 93.7526C31.9831 94.1048 36.0831 94.7335 39.1837 96.3181C39.3119 96.3935 39.44 96.469 39.5681 96.5193C39.645 96.5696 39.7219 96.5947 39.7731 96.645C41.1056 97.3493 42.515 98.0535 43.9757 98.7326C48.1269 100.694 51.5095 101.7 55.5839 101.826C60.6064 101.977 69.3446 97.8272 76.0584 94.2054C88.9735 87.2385 96.1742 82.7867 92.6379 79.9697C89.3067 77.3037 79.3385 83.2897 70.8309 87.5151" stroke="#414BEA" stroke-width="5" stroke-miterlimit="10" stroke-linecap="round" stroke-linejoin="round"/>
<path d="M43.1347 87.2766C49.1155 87.7347 52.9929 89.3739 58.2388 91.0614C63.6114 92.7971 67.0326 93.9301 67.9196 91.1096C68.8573 88.1445 62.4456 83.6124 55.7045 81.033C50.8388 79.1768 47.4176 75.4885 42.9066 74.934C39.1812 74.476 35.8107 75.3197 33.1244 76.1635C31.0463 76.8144 29.1963 77.3206 27.473 77.6822" stroke="#414BEA" stroke-width="5" stroke-miterlimit="10" stroke-linecap="round" stroke-linejoin="round"/>
<path d="M26.7584 97.3262H19.179C18.7707 97.3262 18.4645 96.9897 18.4645 96.6014V75.5298C18.4645 75.1156 18.7962 74.8049 19.179 74.8049H26.7584C27.1667 74.8049 27.473 75.1415 27.473 75.5298V96.6014C27.473 97.0155 27.1412 97.3262 26.7584 97.3262Z" fill="#E9ECEF" stroke="#414BEA" stroke-width="5" stroke-miterlimit="10" stroke-linecap="round" stroke-linejoin="round"/>
<path d="M50.8318 66.4883L59.381 66.4883" stroke="#414BEA" stroke-width="5" stroke-linecap="round" stroke-linejoin="round"/>
<path d="M74.3418 40.9094H78.6164" stroke="#414BEA" stroke-width="5" stroke-linecap="round" stroke-linejoin="round"/>
<path d="M70.0674 30.2229L73.09 27.2003" stroke="#414BEA" stroke-width="5" stroke-linecap="round" stroke-linejoin="round"/>
<path d="M40.847 30.2229L37.8245 27.2003" stroke="#414BEA" stroke-width="5" stroke-linecap="round" stroke-linejoin="round"/>
<path d="M35.5043 40.9094L31.2297 40.9094" stroke="#414BEA" stroke-width="5" stroke-linecap="round" stroke-linejoin="round"/>
<path d="M55.1062 23.4443L55.1062 19.1697" stroke="#414BEA" stroke-width="5" stroke-linecap="round" stroke-linejoin="round"/>
<path d="M49.2289 54.8018V60.145H60.984V54.2675" stroke="#414BEA" stroke-width="5" stroke-linecap="round" stroke-linejoin="round"/>
<path d="M60.9839 54.2675C65.1097 52.1361 67.9301 48.0106 67.9301 43.0467C67.9301 35.9643 62.1887 30.2229 55.1064 30.2229C48.024 30.2229 42.2826 35.9643 42.2826 43.0467C42.2826 48.0106 45.103 52.3158 49.2288 54.4472" stroke="#414BEA" stroke-width="5" stroke-linecap="round" stroke-linejoin="round"/>
</svg>
