<svg width="112" height="121" viewBox="0 0 112 121" fill="none" xmlns="http://www.w3.org/2000/svg">
<path d="M67.5495 73.7258H42.0394C40.5631 73.7258 39.3977 72.5318 39.3977 71.0783C39.3977 69.6247 40.589 68.4307 42.0394 68.4307H67.5495C69.0257 68.4307 70.1911 69.6247 70.1911 71.0783C70.1911 72.5318 69.0257 73.7258 67.5495 73.7258Z" fill="#414BEA"/>
<path d="M51.6221 94.3616C50.1459 94.3616 48.9805 93.1676 48.9805 91.714C48.9805 90.2605 50.1718 89.0665 51.6221 89.0665C55.74 89.0665 59.1068 85.6922 59.1068 81.5651C59.1068 77.438 55.74 74.0637 51.6221 74.0637C50.1459 74.0637 48.9805 72.8697 48.9805 71.4161C48.9805 69.9626 50.1718 68.7686 51.6221 68.7686C58.6665 68.7686 64.416 74.505 64.416 81.5911C64.416 88.6771 58.6924 94.3616 51.6221 94.3616Z" fill="#414BEA"/>
<path d="M34.5201 100C38.854 100 42.3674 96.4788 42.3674 92.1352C42.3674 87.7916 38.854 84.2704 34.5201 84.2704C30.1862 84.2704 26.6729 87.7916 26.6729 92.1352C26.6729 96.4788 30.1862 100 34.5201 100Z" stroke="#414BEA" stroke-width="5"/>
<path d="M74.8265 55.0116C73.3503 55.0116 72.1848 53.8176 72.1848 52.364C72.1848 50.9105 73.3762 49.7165 74.8265 49.7165C78.5041 49.7165 81.5083 46.7055 81.5083 43.0197C81.5083 39.3339 78.5041 36.323 74.8265 36.323H59.365C57.8888 36.323 56.7234 35.129 56.7234 33.6754C56.7234 32.2219 57.9147 31.0279 59.365 31.0279H74.8265C81.4306 31.0279 86.8175 36.4268 86.8175 43.0457C86.8175 49.6646 81.4306 55.0116 74.8265 55.0116Z" fill="#414BEA"/>
<path d="M31.2916 73.7265C24.6874 73.7265 19.3005 68.3276 19.3005 61.7087C19.3005 55.0898 24.6874 49.6909 31.2916 49.6909H46.753C48.2292 49.6909 49.3947 50.8849 49.3947 52.3384C49.3947 53.792 48.2033 54.986 46.753 54.986H31.2916C27.614 54.986 24.6097 57.9969 24.6097 61.6827C24.6097 65.3685 27.614 68.3795 31.2916 68.3795C32.7678 68.3795 33.9332 69.5735 33.9332 71.027C33.9332 72.4806 32.7678 73.7265 31.2916 73.7265Z" fill="#414BEA"/>
<path d="M64.6738 55.1412C66.2185 55.1412 67.4708 53.8861 67.4708 52.3379C67.4708 50.7897 66.2185 49.5346 64.6738 49.5346C63.129 49.5346 61.8767 50.7897 61.8767 52.3379C61.8767 53.8861 63.129 55.1412 64.6738 55.1412Z" fill="#414BEA"/>
<path d="M54.7817 55.1412C56.3264 55.1412 57.5787 53.8861 57.5787 52.3379C57.5787 50.7897 56.3264 49.5346 54.7817 49.5346C53.2369 49.5346 51.9846 50.7897 51.9846 52.3379C51.9846 53.8861 53.2369 55.1412 54.7817 55.1412Z" fill="#414BEA"/>
<rect x="76.4304" y="64.9608" width="16.2689" height="13.5574" stroke="#414BEA" stroke-width="5" stroke-linejoin="round"/>
<rect x="33.0466" y="27" width="16.2689" height="13.5574" stroke="#414BEA" stroke-width="5" stroke-linejoin="round"/>
</svg>
