<svg width="112" height="120" viewBox="0 0 112 120" fill="none" xmlns="http://www.w3.org/2000/svg">
<path d="M38.0833 71.5442V97.3232C38.0212 97.3385 37.9412 97.3504 37.8426 97.3504H21.7407C21.6422 97.3504 21.5622 97.3385 21.5 97.3232V71.55C21.5674 71.5303 21.6489 71.517 21.7407 71.517H37.8426C37.9412 71.517 38.0212 71.5288 38.0833 71.5442Z" stroke="#414BEA" stroke-width="5"/>
<path d="M64.2918 42.7801V96.7955C64.2918 97.0335 64.2057 97.1978 64.1278 97.284C64.0862 97.33 64.0573 97.3456 64.0448 97.3503H47.9492C47.9429 97.3503 47.9413 97.35 47.9356 97.3473C47.9271 97.3434 47.9014 97.3292 47.8674 97.2913C47.7984 97.2143 47.7085 97.0508 47.7085 96.7955V42.7801C47.7085 42.5249 47.7984 42.3613 47.8674 42.2844C47.9014 42.2465 47.9271 42.2323 47.9356 42.2283C47.9413 42.2256 47.9429 42.2253 47.9492 42.2253H64.0511C64.0575 42.2253 64.059 42.2256 64.0648 42.2283C64.0732 42.2323 64.0989 42.2465 64.1329 42.2844C64.202 42.3613 64.2918 42.5249 64.2918 42.7801ZM64.0378 97.352C64.0379 97.3517 64.0399 97.3511 64.0438 97.3507C64.0398 97.3521 64.0377 97.3523 64.0378 97.352Z" stroke="#414BEA" stroke-width="5"/>
<path d="M90.2591 54.5586C90.3492 54.5586 90.4298 54.5662 90.4999 54.578V97.3222C90.4242 97.3374 90.3362 97.3481 90.2373 97.3503H74.1572C74.0672 97.3503 73.9865 97.3428 73.9165 97.331V54.578C73.9865 54.5662 74.0672 54.5586 74.1572 54.5586H90.2591Z" stroke="#414BEA" stroke-width="5"/>
<path d="M32.9822 39.7253L32.9822 46.0175L32.9822 52.3096" stroke="#414BEA" stroke-width="4.5" stroke-linecap="round"/>
<path d="M27.3892 42.5218L32.9822 36.9288L38.5752 42.5218" stroke="#414BEA" stroke-width="4.5" stroke-linecap="round" stroke-linejoin="round"/>
<path d="M72.1338 22.9462L72.1338 29.2384L72.1338 35.5305" stroke="#414BEA" stroke-width="4.5" stroke-linecap="round"/>
<path d="M66.5408 25.7427L72.1338 20.1497L77.7268 25.7427" stroke="#414BEA" stroke-width="4.5" stroke-linecap="round" stroke-linejoin="round"/>
</svg>
