<svg width="48" height="48" viewBox="0 0 48 48" fill="none" xmlns="http://www.w3.org/2000/svg">
<path d="M15.1532 33.5505C15.7527 33.9726 16.4684 34.1983 17.2016 34.1965C17.9348 34.1947 18.6494 33.9654 19.2468 33.5403C19.852 33.0983 20.311 32.4863 20.5626 31.7791L22.0824 27.1109C22.4715 25.9403 23.1278 24.8765 23.9995 24.0036C24.8711 23.1308 25.9341 22.473 27.1042 22.0823L31.8336 20.5523C32.5328 20.2992 33.135 19.833 33.5553 19.2195C33.9755 18.606 34.1927 17.8761 34.1762 17.1326C34.1597 16.3891 33.9103 15.6696 33.4632 15.0754C33.0161 14.4811 32.3938 14.0422 31.684 13.8203L27.009 12.2971C25.8377 11.9088 24.773 11.2527 23.8995 10.3809C23.026 9.50923 22.3677 8.44588 21.977 7.27533L20.4402 2.55613C20.1927 1.86087 19.7347 1.26003 19.1299 0.837194C18.5251 0.414357 17.8035 0.190551 17.0655 0.196909C16.3276 0.203268 15.6099 0.439475 15.0125 0.872671C14.415 1.30587 13.9674 1.91451 13.732 2.61393L12.1782 7.37393C11.789 8.51296 11.1461 9.54864 10.2979 10.4027C9.44971 11.2568 8.41851 11.9069 7.2822 12.3039L2.5562 13.8237C1.86122 14.0717 1.2607 14.5299 0.838002 15.1347C0.415303 15.7396 0.191402 16.461 0.197382 17.1989C0.203363 17.9367 0.438929 18.6544 0.871376 19.2523C1.30382 19.8502 1.91169 20.2986 2.6106 20.5353L7.2822 22.0483C8.45846 22.4395 9.52666 23.1009 10.4011 23.9795C11.2756 24.8581 11.932 25.9294 12.3176 27.1075L13.8544 31.8369C14.0992 32.5305 14.5548 33.1289 15.1532 33.5505ZM36.019 47.2933C36.3668 47.5378 36.7667 47.6981 37.1871 47.7614C37.6075 47.8247 38.0369 47.7893 38.4412 47.658C38.8456 47.5267 39.2139 47.3032 39.5169 47.005C39.82 46.7069 40.0495 46.3423 40.1874 45.9401L41.0306 43.3493C41.2121 42.812 41.5145 42.3234 41.9146 41.9213C42.3158 41.5133 42.8054 41.2141 43.3426 41.0373L45.9674 40.1805C46.509 39.9936 46.9778 39.6404 47.3068 39.1713C47.6359 38.7022 47.8083 38.1411 47.7997 37.5682C47.791 36.9953 47.6016 36.4397 47.2585 35.9808C46.9155 35.5219 46.4362 35.183 45.8892 35.0125L43.2916 34.1625C42.7539 33.9838 42.2651 33.6825 41.8639 33.2824C41.4627 32.8824 41.1599 32.3945 40.9796 31.8573L40.1228 29.2291C39.9388 28.6886 39.5894 28.2196 39.124 27.8887C38.6586 27.5579 38.1009 27.3818 37.5299 27.3856C36.9589 27.3894 36.4036 27.5727 35.9426 27.9097C35.4817 28.2467 35.1384 28.7202 34.9616 29.2631L34.1218 31.8539C33.9487 32.3872 33.6545 32.8731 33.2622 33.2736C32.87 33.6741 32.3903 33.9784 31.8608 34.1625L29.2326 35.0193C28.6918 35.2026 28.2224 35.5514 27.8909 36.0164C27.5595 36.4813 27.3827 37.0387 27.3857 37.6097C27.3887 38.1807 27.5713 38.7363 27.9077 39.1977C28.2441 39.6591 28.7171 40.003 29.2598 40.1805L31.854 41.0203C32.398 41.2039 32.8876 41.5065 33.2888 41.9077C33.6934 42.3123 33.9926 42.8019 34.166 43.3425L35.0262 45.9741C35.2125 46.5061 35.5594 46.9671 36.019 47.2933Z" fill="#414BEA"/>
</svg>
